<svg width="70" height="77" viewBox="0 0 70 77" fill="none" xmlns="http://www.w3.org/2000/svg">
<path d="M46.8614 0.485589C46.421 0.0304792 45.7526 -0.120052 45.1596 0.102323L15.4344 11.2493C14.9031 11.4485 14.7453 12.1241 15.1334 12.5381L37.0997 35.9688C37.7947 36.7102 38.1815 37.6883 38.1815 38.7046V75.6374C38.1815 76.2217 38.7905 76.6066 39.3183 76.3559L69.5458 61.9978C69.8232 61.8661 70 61.5864 70 61.2793L70 25.5C70 25.2827 69.6436 24.1484 69.5 24L46.8614 0.485589Z" fill="black"/>
<path d="M29.9906 37.4943L1.07472 26.6529C0.554694 26.4579 0 26.8424 0 27.3977V33.8975C0 34.5607 0.411415 35.1543 1.03241 35.3871L29.9483 46.2285C30.4683 46.4235 31.023 46.0391 31.023 45.4837V38.984C31.023 38.3208 30.6116 37.7271 29.9906 37.4943Z" fill="black"/>
<path d="M29.9906 52.6081L1.07472 41.7667C0.554694 41.5717 0 41.9561 0 42.5115V49.0112C0 49.6744 0.411415 50.2681 1.03241 50.5009L29.9483 61.3423C30.4683 61.5372 31.023 61.1528 31.023 60.5974V54.0977C31.023 53.4345 30.6116 52.8409 29.9906 52.6081Z" fill="black"/>
<path d="M15.6728 63.6316C15.6728 62.8629 15.196 62.1749 14.4762 61.9051L1.07472 56.8804C0.554694 56.6855 0 57.0699 0 57.6253V64.125C0 64.7882 0.411415 65.3818 1.03241 65.6146L14.4272 70.6367C15.0299 70.8627 15.6728 70.4172 15.6728 69.7735V63.6316Z" fill="black"/>
</svg>
